<svg width="30" height="26" viewBox="0 0 30 26" fill="none" xmlns="http://www.w3.org/2000/svg">
<g id="Group 7">
<g id="Group">
<path id="Vector" d="M28 0.333313H1.99999C1.07952 0.333313 0.333328 1.07951 0.333328 1.99998V24C0.333328 24.9205 1.07952 25.6666 1.99999 25.6666H28C28.9205 25.6666 29.6667 24.9205 29.6667 24V1.99998C29.6667 1.07951 28.9205 0.333313 28 0.333313Z" fill="#F4B401"/>
</g>
<g id="Group_2">
<path id="Vector_2" d="M27 2.66669H2.99999V23.3334H27V2.66669Z" fill="#1BA261"/>
</g>
<path id="Vector_3" fill-rule="evenodd" clip-rule="evenodd" d="M20.1677 14.6675C18.4041 14.6675 16.9451 15.3196 16.7024 16.1678H16.667V17.6723H23.6684V16.1678H23.6329C23.3903 15.3196 21.9313 14.6675 20.1677 14.6675ZM20.1677 13.6673C20.9963 13.6673 21.668 12.9956 21.668 12.167C21.668 11.3384 20.9963 10.6667 20.1677 10.6667C19.3391 10.6667 18.6674 11.3384 18.6674 12.167C18.6674 12.9956 19.3391 13.6673 20.1677 13.6673Z" fill="white" fill-opacity="0.395777"/>
<path id="Vector_4" fill-rule="evenodd" clip-rule="evenodd" d="M9.83401 14.6675C8.07041 14.6675 6.61141 15.3196 6.36878 16.1678H6.33331V17.6723H13.3347V16.1678H13.2993C13.0566 15.3196 11.5976 14.6675 9.83401 14.6675ZM9.83401 13.6673C10.6626 13.6673 11.3343 12.9956 11.3343 12.167C11.3343 11.3384 10.6626 10.6667 9.83401 10.6667C9.00541 10.6667 8.33371 11.3384 8.33371 12.167C8.33371 12.9956 9.00541 13.6673 9.83401 13.6673Z" fill="white" fill-opacity="0.395777"/>
<path id="Vector_5" fill-rule="evenodd" clip-rule="evenodd" d="M15 13.6667C12.649 13.6667 10.7041 14.5359 10.3806 15.6667H10.3333V17.6723H19.6667V15.6667H19.6194C19.2959 14.5359 17.351 13.6667 15 13.6667ZM15 12.3333C16.1046 12.3333 17 11.4379 17 10.3333C17 9.22878 16.1046 8.33334 15 8.33334C13.8954 8.33334 13 9.22878 13 10.3333C13 11.4379 13.8954 12.3333 15 12.3333Z" fill="#F7F7F7"/>
<path id="Vector_6" fill-rule="evenodd" clip-rule="evenodd" d="M17.6667 23L20.3333 25.6667H26.3333L23.6667 23H17.6667Z" fill="url(#paint0_linear_9_55)" fill-opacity="0.6"/>
<g id="Group_3" filter="url(#filter0_d_9_55)">
<path id="Vector_7" d="M23.6667 21.6667H17.6667V23.0001H23.6667V21.6667Z" fill="#F1F1F1"/>
</g>
</g>
<defs>
<filter id="filter0_d_9_55" x="15.1667" y="18.5417" width="11" height="6.33334" filterUnits="userSpaceOnUse" color-interpolation-filters="sRGB">
<feFlood flood-opacity="0" result="BackgroundImageFix"/>
<feColorMatrix in="SourceAlpha" type="matrix" values="0 0 0 0 0 0 0 0 0 0 0 0 0 0 0 0 0 0 127 0" result="hardAlpha"/>
<feOffset dy="-0.625"/>
<feGaussianBlur stdDeviation="1.25"/>
<feColorMatrix type="matrix" values="0 0 0 0 0.0784314 0 0 0 0 0.592157 0 0 0 0 0.34902 0 0 0 1 0"/>
<feBlend mode="normal" in2="BackgroundImageFix" result="effect1_dropShadow_9_55"/>
<feBlend mode="normal" in="SourceGraphic" in2="effect1_dropShadow_9_55" result="shape"/>
</filter>
<linearGradient id="paint0_linear_9_55" x1="14.7395" y1="21.2732" x2="14.7395" y2="25.9608" gradientUnits="userSpaceOnUse">
<stop stop-color="#C26003"/>
<stop offset="1" stop-color="#F4B401" stop-opacity="0.513842"/>
</linearGradient>
</defs>
</svg>
